<svg id="Layer_4" data-name="Layer 4" xmlns="http://www.w3.org/2000/svg" xmlns:xlink="http://www.w3.org/1999/xlink" viewBox="0 0 209.17 209.17"><defs><style>.cls-1{fill:none;}.cls-2{clip-path:url(#clip-path);}.cls-3{fill:#fff;}.cls-4{fill:#387fe1;}.cls-5{fill:#ffb300;}</style><clipPath id="clip-path"><circle class="cls-1" cx="104.59" cy="104.6" r="104.58"/></clipPath></defs><title>V1</title><g class="cls-2"><circle class="cls-3" cx="104.59" cy="104.6" r="109.47"/><path class="cls-4" d="M151.08,109.26A35.22,35.22,0,0,0,103,96.38l-7.74,4.47,11.24,19.48a22.06,22.06,0,0,1-30.12-8.07l-5.73-9.93h0L55.37,75.83,32.12,89.26a22,22,0,0,1,8.07-30.12l4.15-2.4L29.77,31.49C-8.44,16.12-23.95,120.08,0,161.56c11.7,20.26,44.81,45.62,63.21,39.06l26.7-15.42h0l48.29-27.88A35.22,35.22,0,0,0,151.08,109.26Z"/><path class="cls-5" d="M158.51,211.26c50-28.84,76.64-117.54,47.8-167.49S95.6-21.46,45.65,7.38c-1.8,1-.41,6.56,1.37,9.89L63.44,45.72,111.2,18.14a22,22,0,0,1-8.07,30.12L74.46,64.81l9.73,16.86,0,.09L92,77.28a57.24,57.24,0,0,1,57.23,99.14L93.51,208.58C100.09,221.07,138.59,222.76,158.51,211.26Z"/></g></svg>